<svg id="Layer_1" data-name="Layer 1" xmlns="http://www.w3.org/2000/svg" width="219.84" height="24.06" viewBox="0 0 219.84 24.06"><defs><style>.cls-1{fill:#fff;}</style></defs><path class="cls-1" d="M25.66,2.39c.48,0,.7.23.7.71V6.23c0,.48-.22.74-.7.74h-16c-3.3,0-4.26,1-4.26,4.35v4.61c0,3.39,1,4.38,4.26,4.38H20.18c1.12,0,1.6-.51,1.6-1.95V15.77c0-.29-.09-.42-.38-.42H12a.65.65,0,0,1-.71-.74V12.22a.66.66,0,0,1,.71-.74H25.37a.85.85,0,0,1,1,1V19.9c0,3.58-1.41,4.89-4,4.89H9.43c-6.46,0-9-2.3-9-8.45v-5.5c0-6.14,2.5-8.45,9-8.45Z" transform="translate(-0.47 -0.73)"/><path class="cls-1" d="M44.47,7.22c5.76,0,7.62,1.86,7.62,6.5v8.51c0,2.08-.51,2.56-2.37,2.56H34.49c-3.78,0-4.93-1.38-4.93-4.54V18.71c0-2.69,1.15-4.19,4.93-4.19h13v-.61c0-2.05-.7-2.85-3.49-2.85H30.65c-.38,0-.58-.16-.58-.57V7.8a.52.52,0,0,1,.58-.58Zm3,13V17.37H35.8c-1.31,0-1.79.54-1.79,1.57v.67c0,1.15.48,1.66,1.79,1.66H46.58C47.26,21.27,47.51,21,47.51,20.18Z" transform="translate(-0.47 -0.73)"/><path class="cls-1" d="M57.63,7.22a.69.69,0,0,1,.73.52l4.13,13.15a.3.3,0,0,0,.32.22h.13c.19,0,.28-.06.32-.22L67.58,8.76c.41-1.15.89-1.54,2-1.54h3.81c1.15,0,1.63.39,2,1.54l4.29,12.13c0,.16.13.22.32.22h.13a.31.31,0,0,0,.32-.22L84.69,7.74a.65.65,0,0,1,.74-.52h3.62c.54,0,.67.32.54.77L84.73,22.81c-.51,1.6-1.12,2-2.47,2h-4c-1.12,0-1.6-.48-2.14-2L71.86,11.13c0-.13-.12-.19-.28-.19h-.2c-.16,0-.25.06-.28.19L66.9,22.81c-.54,1.5-1,2-2.14,2h-4c-1.35,0-1.95-.38-2.47-2L53.47,8c-.13-.45,0-.77.54-.77Z" transform="translate(-0.47 -0.73)"/><path class="cls-1" d="M106.07,7.22c5.76,0,7.62,1.86,7.62,6.5v8.51c0,2.08-.51,2.56-2.37,2.56H96.09c-3.78,0-4.93-1.38-4.93-4.54V18.71c0-2.69,1.15-4.19,4.93-4.19h13v-.61c0-2.05-.7-2.85-3.49-2.85H92.25c-.39,0-.58-.16-.58-.57V7.8a.51.51,0,0,1,.58-.58Zm3,13V17.37H97.4c-1.31,0-1.79.54-1.79,1.57v.67c0,1.15.48,1.66,1.79,1.66h10.78C108.86,21.27,109.11,21,109.11,20.18Z" transform="translate(-0.47 -0.73)"/><path class="cls-1" d="M131.32,7.22c5.76,0,7.61,1.86,7.61,6.5v8.51c0,2.08-.51,2.56-2.36,2.56H121.34c-3.78,0-4.93-1.38-4.93-4.54V18.71c0-2.69,1.15-4.19,4.93-4.19h13v-.61c0-2.05-.71-2.85-3.49-2.85H117.5c-.39,0-.58-.16-.58-.57V7.8a.51.51,0,0,1,.58-.58Zm3,13V17.37H122.65c-1.31,0-1.79.54-1.79,1.57v.67c0,1.15.48,1.66,1.79,1.66h10.78C134.1,21.27,134.36,21,134.36,20.18Z" transform="translate(-0.47 -0.73)"/><path class="cls-1" d="M158.84,7.22a.51.51,0,0,1,.57.58v2.69c0,.41-.19.57-.57.57h-8.51c-2.75,0-3.49.84-3.49,3.52v9.51a.61.61,0,0,1-.7.7H143c-.48,0-.74-.22-.74-.7V13.72c0-4.64,1.86-6.5,7.62-6.5Z" transform="translate(-0.47 -0.73)"/><path class="cls-1" d="M165.85.73a.61.61,0,0,1,.7.7v3c0,.48-.22.74-.7.74h-3.14a.66.66,0,0,1-.73-.74v-3c0-.48.25-.7.73-.7Zm0,6.49c.48,0,.7.26.7.74V24.09a.61.61,0,0,1-.7.7h-3.14a.61.61,0,0,1-.7-.7V8c0-.48.22-.74.7-.74Z" transform="translate(-0.47 -0.73)"/><path class="cls-1" d="M190,7.22V1.5a.62.62,0,0,1,.71-.71h3.13a.62.62,0,0,1,.71.71V18.33c0,4.64-1.86,6.46-7.62,6.46h-9c-5.76,0-7.61-1.82-7.61-6.46V13.72c0-4.64,1.85-6.5,7.61-6.5Zm0,10.21V11.06H178.39c-2.75,0-3.49.84-3.49,3.52v2.85c0,2.69.74,3.52,3.49,3.52h8.06C189.24,21,190,20.12,190,17.43Z" transform="translate(-0.47 -0.73)"/><path class="cls-1" d="M212.69,7.22c5.76,0,7.62,1.86,7.62,6.5v8.51c0,2.08-.51,2.56-2.37,2.56H202.71c-3.77,0-4.93-1.38-4.93-4.54V18.71c0-2.69,1.16-4.19,4.93-4.19h13v-.61c0-2.05-.7-2.85-3.48-2.85H198.87c-.38,0-.57-.16-.57-.57V7.8a.51.51,0,0,1,.57-.58Zm3,13V17.37H204c-1.31,0-1.79.54-1.79,1.57v.67c0,1.15.48,1.66,1.79,1.66h10.79C215.48,21.27,215.73,21,215.73,20.18Z" transform="translate(-0.47 -0.73)"/></svg>